<svg width="375" height="812" viewBox="0 0 375 812" fill="none" xmlns="http://www.w3.org/2000/svg">
<g clip-path="url(#clip0_3_2)">
<rect width="375" height="812" fill="white"/>
<path fill-rule="evenodd" clip-rule="evenodd" d="M120.404 753.733C72.4689 869.481 56.4014 921.937 -51.0256 911.493C-145.756 902.283 71.5245 628.022 -143.058 763.6C-156.163 664.927 -203.493 665.737 -122.966 607.04C-37.5924 544.81 44.956 462.264 115.046 527.352C190.647 597.558 166.109 643.371 120.404 753.733Z" fill="#64638F" fill-opacity="0.2"/>
<path fill-rule="evenodd" clip-rule="evenodd" d="M485.758 77.2709C588.268 5.2493 635.958 -21.87 602.34 -124.434C572.695 -214.876 352.414 56.9794 437.938 -182.003C338.782 -173.277 329.252 -219.644 289.527 -128.256C247.41 -31.3666 184.851 67.195 263.657 121.406C348.658 179.879 388.018 145.941 485.758 77.2709Z" fill="#64638F" fill-opacity="0.1"/>
</g>
<defs>
<clipPath id="clip0_3_2">
<rect width="375" height="812" fill="white"/>
</clipPath>
</defs>
</svg>
