<svg width="316" height="812" viewBox="0 0 316 812" fill="none" xmlns="http://www.w3.org/2000/svg">
<g clip-path="url(#clip0_142_6)">
<path d="M0 0H301C309.284 0 316 6.71573 316 15V797C316 805.284 309.284 812 301 812H0V0Z" fill="white"/>
<path fill-rule="evenodd" clip-rule="evenodd" d="M197.455 605.561C277.731 604.187 312.673 599.87 333.849 672.975C352.521 737.439 135.939 672.975 270.258 774.832C215.549 811.249 228.061 841.93 173.056 805.913C114.74 767.728 45.1915 737.124 65.6539 672.975C87.7252 603.782 120.914 606.872 197.455 605.561Z" fill="#64638F" fill-opacity="0.08"/>
</g>
<defs>
<clipPath id="clip0_142_6">
<path d="M0 0H301C309.284 0 316 6.71573 316 15V797C316 805.284 309.284 812 301 812H0V0Z" fill="white"/>
</clipPath>
</defs>
</svg>
